<svg width="147" height="52" viewBox="0 0 147 52" fill="none" xmlns="http://www.w3.org/2000/svg">
<path d="M49 8C49 3.58172 52.5817 0 57 0H90C94.4183 0 98 3.58172 98 8V51H49V8Z" fill="#EE296B"/>
<path d="M0 24C0 19.5817 3.58172 16 8 16H49V51H0V24Z" fill="#F4F4F6"/>
<path d="M98 24H139C143.418 24 147 27.5817 147 32V51H98V24Z" fill="#F4F4F6"/>
<path d="M70.808 33C70.496 33 70.25 32.916 70.07 32.748C69.902 32.568 69.818 32.328 69.818 32.028C69.818 31.716 69.902 31.482 70.07 31.326C70.25 31.17 70.496 31.092 70.808 31.092H72.824V22.254H73.94L71.294 23.856C71.066 23.988 70.85 24.042 70.646 24.018C70.454 23.982 70.286 23.898 70.142 23.766C70.01 23.622 69.92 23.454 69.872 23.262C69.824 23.07 69.836 22.878 69.908 22.686C69.992 22.482 70.148 22.314 70.376 22.182L72.86 20.688C73.1 20.544 73.34 20.424 73.58 20.328C73.82 20.22 74.042 20.166 74.246 20.166C74.498 20.166 74.708 20.238 74.876 20.382C75.044 20.514 75.128 20.736 75.128 21.048V31.092H76.964C77.276 31.092 77.516 31.17 77.684 31.326C77.864 31.482 77.954 31.716 77.954 32.028C77.954 32.34 77.864 32.58 77.684 32.748C77.516 32.916 77.276 33 76.964 33H70.808Z" fill="#F4F4F6"/>
<path d="M21.394 41C21.01 41 20.728 40.916 20.548 40.748C20.38 40.568 20.296 40.31 20.296 39.974C20.296 39.77 20.35 39.572 20.458 39.38C20.566 39.188 20.722 38.984 20.926 38.768L24.544 34.916C25.096 34.34 25.492 33.818 25.732 33.35C25.972 32.87 26.092 32.39 26.092 31.91C26.092 31.31 25.9 30.854 25.516 30.542C25.144 30.23 24.598 30.074 23.878 30.074C23.47 30.074 23.062 30.134 22.654 30.254C22.246 30.362 21.832 30.554 21.412 30.83C21.196 30.974 20.992 31.034 20.8 31.01C20.62 30.986 20.458 30.908 20.314 30.776C20.182 30.644 20.092 30.482 20.044 30.29C19.996 30.098 20.002 29.906 20.062 29.714C20.134 29.51 20.278 29.336 20.494 29.192C21.01 28.844 21.586 28.58 22.222 28.4C22.87 28.22 23.518 28.13 24.166 28.13C25.078 28.13 25.846 28.268 26.47 28.544C27.094 28.82 27.568 29.222 27.892 29.75C28.216 30.278 28.378 30.92 28.378 31.676C28.378 32.18 28.294 32.672 28.126 33.152C27.97 33.632 27.724 34.118 27.388 34.61C27.064 35.102 26.638 35.624 26.11 36.176L22.726 39.704V39.092H28.018C28.342 39.092 28.588 39.17 28.756 39.326C28.924 39.482 29.008 39.716 29.008 40.028C29.008 40.34 28.924 40.58 28.756 40.748C28.588 40.916 28.342 41 28.018 41H21.394Z" fill="#EE296B"/>
<path d="M122.148 45.18C121.5 45.18 120.828 45.096 120.132 44.928C119.436 44.76 118.83 44.508 118.314 44.172C118.074 44.016 117.912 43.836 117.828 43.632C117.744 43.428 117.72 43.236 117.756 43.056C117.804 42.864 117.894 42.702 118.026 42.57C118.17 42.438 118.344 42.36 118.548 42.336C118.764 42.312 118.998 42.366 119.25 42.498C119.742 42.762 120.216 42.954 120.672 43.074C121.128 43.182 121.596 43.236 122.076 43.236C122.604 43.236 123.048 43.164 123.408 43.02C123.768 42.876 124.038 42.66 124.218 42.372C124.41 42.084 124.506 41.736 124.506 41.328C124.506 40.728 124.302 40.284 123.894 39.996C123.498 39.696 122.916 39.546 122.148 39.546H120.996C120.66 39.546 120.402 39.462 120.222 39.294C120.054 39.126 119.97 38.892 119.97 38.592C119.97 38.292 120.054 38.058 120.222 37.89C120.402 37.722 120.66 37.638 120.996 37.638H121.932C122.388 37.638 122.778 37.566 123.102 37.422C123.426 37.266 123.678 37.05 123.858 36.774C124.038 36.498 124.128 36.162 124.128 35.766C124.128 35.214 123.942 34.794 123.57 34.506C123.21 34.218 122.682 34.074 121.986 34.074C121.542 34.074 121.122 34.128 120.726 34.236C120.342 34.332 119.916 34.518 119.448 34.794C119.232 34.926 119.022 34.98 118.818 34.956C118.626 34.932 118.464 34.854 118.332 34.722C118.2 34.59 118.11 34.434 118.062 34.254C118.014 34.062 118.026 33.87 118.098 33.678C118.17 33.474 118.32 33.3 118.548 33.156C119.064 32.82 119.634 32.568 120.258 32.4C120.882 32.22 121.524 32.13 122.184 32.13C123.06 32.13 123.81 32.268 124.434 32.544C125.058 32.808 125.532 33.192 125.856 33.696C126.192 34.188 126.36 34.788 126.36 35.496C126.36 36 126.264 36.462 126.072 36.882C125.88 37.29 125.61 37.638 125.262 37.926C124.914 38.214 124.494 38.418 124.002 38.538V38.322C124.866 38.466 125.538 38.826 126.018 39.402C126.498 39.966 126.738 40.674 126.738 41.526C126.738 42.27 126.552 42.918 126.18 43.47C125.808 44.022 125.28 44.448 124.596 44.748C123.912 45.036 123.096 45.18 122.148 45.18Z" fill="#EE296B"/>
</svg>
